<svg width="62" height="62" viewBox="0 0 62 62" fill="none" xmlns="http://www.w3.org/2000/svg">
<path d="M18.2705 25.3502L12.954 30.6668C10.7737 32.847 9.54883 35.8042 9.54883 38.8876C9.54883 41.971 10.7737 44.9281 12.954 47.1084C15.1343 49.2887 18.0914 50.5135 21.1748 50.5135C24.2582 50.5135 27.2153 49.2887 29.3956 47.1084L36.4791 40.021C37.7939 38.706 38.774 37.0949 39.3373 35.3227C39.9005 33.5506 40.0305 31.6692 39.7161 29.8365C39.4018 28.0037 38.6525 26.2731 37.5309 24.7899C36.4094 23.3067 34.9484 22.1142 33.2706 21.3125L30.9999 23.5832C30.7693 23.8142 30.5688 24.0733 30.4031 24.3544C31.6994 24.727 32.876 25.4315 33.8166 26.3983C34.7572 27.365 35.4292 28.5605 35.7661 29.8665C36.1031 31.1725 36.0934 32.5439 35.738 33.845C35.3825 35.1461 34.6937 36.3319 33.7395 37.2852L26.6599 44.3687C25.2057 45.823 23.2333 46.6399 21.1768 46.6399C19.1202 46.6399 17.1478 45.823 15.6936 44.3687C14.2394 42.9145 13.4224 40.9422 13.4224 38.8856C13.4224 36.8291 14.2394 34.8567 15.6936 33.4025L18.7665 30.3335C18.3329 28.7088 18.1654 27.0246 18.2705 25.3464V25.3502Z" fill="white"/>
<path d="M25.5205 18.104C24.2057 19.419 23.2256 21.0301 22.6623 22.8023C22.0991 24.5744 21.9692 26.4558 22.2835 28.2886C22.5978 30.1213 23.3472 31.8519 24.4687 33.3351C25.5903 34.8183 27.0512 36.0108 28.729 36.8125L31.7321 33.8055C30.4183 33.4531 29.2204 32.7611 28.2587 31.7991C27.2971 30.837 26.6056 29.6388 26.2537 28.3248C25.9018 27.0108 25.902 25.6274 26.2542 24.3135C26.6064 22.9996 27.2982 21.8016 28.2601 20.8398L35.3398 13.7563C36.794 12.3021 38.7663 11.4851 40.8229 11.4851C42.8795 11.4851 44.8518 12.3021 46.306 13.7563C47.7602 15.2105 48.5772 17.1828 48.5772 19.2394C48.5772 21.296 47.7602 23.2683 46.306 24.7225L43.2331 27.7915C43.6671 29.419 43.8338 31.1047 43.7291 32.7787L49.0456 27.4622C51.2259 25.2819 52.4508 22.3247 52.4508 19.2413C52.4508 16.1579 51.2259 13.2008 49.0456 11.0205C46.8653 8.84023 43.9082 7.61536 40.8248 7.61536C37.7414 7.61536 34.7843 8.84023 32.604 11.0205L25.5205 18.104Z" fill="white"/>
</svg>
